<svg width="80" height="80" viewBox="0 0 80 80" fill="none" xmlns="http://www.w3.org/2000/svg">
<path d="M50 26.4V20.8C50 18.149 47.851 16 45.2 16H18.8C16.149 16 14 18.149 14 20.8V59.2C14 61.851 16.149 64 18.8 64H45.2C47.851 64 50 61.851 50 59.2V49" stroke="#EE7E06" stroke-width="4"/>
<path d="M69.0002 37.0001C69.0002 37.0001 60.9413 49.0001 51.0001 49.0001C41.0589 49.0001 33 37.0001 33 37.0001" stroke="#C76700" stroke-width="4" stroke-linecap="round" stroke-linejoin="round"/>
<path d="M69.0002 37.0001C69.0002 37.0001 60.9413 25 51.0001 25C41.0589 25 33 37.0001 33 37.0001" stroke="#C76700" stroke-width="4" stroke-linecap="round"/>
<path d="M57 36.756C57 40.0697 54.3137 42.756 51 42.756C47.6863 42.756 45 40.0697 45 36.756C45 33.4423 47.6863 30.756 51 30.756C54.3137 30.756 57 33.4423 57 36.756Z" fill="#F7A042"/>
</svg>
