<svg width="158" height="33" viewBox="0 0 158 33" fill="none" xmlns="http://www.w3.org/2000/svg">
<path d="M23.0433 4.61604C21.1202 3.50618 18.6611 4.16482 17.5508 6.08717L10.4028 18.463C9.29245 20.3854 9.95136 22.8435 11.8745 23.9533L21.16 29.3123C23.0831 30.4221 25.5422 29.7635 26.6525 27.8411L31.6333 19.2175C32.128 18.3611 32.2894 17.3523 32.0866 16.3843L30.8947 10.6934C30.6603 9.5743 29.9602 8.60796 28.9696 8.03629L23.0433 4.61604Z" fill="url(#paint0_linear_8378_119057)"/>
<path fill-rule="evenodd" clip-rule="evenodd" d="M22.8806 4.89778C21.113 3.87766 18.8529 4.48311 17.8325 6.24981L10.6845 18.6257C9.66408 20.3923 10.2696 22.6515 12.0371 23.6716L21.3227 29.0305C23.0903 30.0506 25.3504 29.4452 26.3708 27.6785L31.3516 19.0549C31.8062 18.2678 31.9546 17.3407 31.7682 16.4511L30.5763 10.7601C30.3608 9.73162 29.7174 8.84346 28.807 8.31803L22.8806 4.89778ZM17.5508 6.08717C18.6611 4.16482 21.1202 3.50618 23.0433 4.61604L28.9696 8.03629C29.9602 8.60796 30.6603 9.5743 30.8947 10.6934L32.0866 16.3843C32.2894 17.3523 32.128 18.3611 31.6333 19.2175L26.6525 27.8411C25.5422 29.7635 23.0831 30.4221 21.16 29.3123L11.8745 23.9533C9.95136 22.8435 9.29245 20.3854 10.4028 18.463L17.5508 6.08717Z" fill="white" fill-opacity="0.4"/>
<path d="M13.1799 4.6877C11.2567 3.57783 8.79769 4.23648 7.68738 6.15882L0.539352 18.5347C-0.570952 20.457 0.0879525 22.9151 2.01106 24.025L11.2966 29.3839C13.2197 30.4938 15.6788 29.8351 16.7891 27.9128L21.7699 19.2892C22.2646 18.4327 22.426 17.424 22.2232 16.456L21.0313 10.765C20.7969 9.64595 20.0968 8.67962 19.1062 8.10794L13.1799 4.6877Z" fill="url(#paint1_linear_8378_119057)"/>
<path fill-rule="evenodd" clip-rule="evenodd" d="M13.0172 4.96944C11.2496 3.94932 8.9895 4.55477 7.96909 6.32147L0.821064 18.6973C-0.19932 20.464 0.406157 22.7232 2.17372 23.7433L11.4593 29.1022C13.2269 30.1223 15.487 29.5168 16.5074 27.7501L21.4882 19.1266C21.9428 18.3394 22.0911 17.4124 21.9048 16.5227L20.7129 10.8318C20.4974 9.80327 19.854 8.91512 18.9436 8.38968L13.0172 4.96944ZM7.68738 6.15882C8.79769 4.23648 11.2567 3.57783 13.1799 4.6877L19.1062 8.10794C20.0968 8.67962 20.7969 9.64595 21.0313 10.765L22.2232 16.456C22.426 17.424 22.2646 18.4327 21.7699 19.2892L16.7891 27.9128C15.6788 29.8351 13.2197 30.4938 11.2966 29.3839L2.01106 24.025C0.0879525 22.9151 -0.570952 20.457 0.539352 18.5347L7.68738 6.15882Z" fill="white" fill-opacity="0.4"/>
<path d="M43.5 25.799V12.3825H46.1556L46.3934 13.3139H46.4726C46.8426 12.9704 47.2654 12.6929 47.741 12.4815C48.2166 12.2569 48.6988 12.1446 49.1877 12.1446C49.9804 12.1446 50.6608 12.356 51.2289 12.7788C51.8102 13.1884 52.2528 13.7697 52.5567 14.5228C52.8738 15.2758 53.0323 16.161 53.0323 17.1783C53.0323 18.3013 52.8341 19.2658 52.4378 20.0717C52.0414 20.8644 51.5262 21.4722 50.892 21.8949C50.271 22.3045 49.6104 22.5093 48.9102 22.5093C48.5007 22.5093 48.1043 22.4234 47.7212 22.2517C47.338 22.0799 46.9813 21.8355 46.651 21.5184L46.7699 23.0245V25.799H43.5ZM48.1175 19.8339C48.4082 19.8339 48.6724 19.7546 48.9102 19.5961C49.148 19.4243 49.333 19.1469 49.4651 18.7637C49.6104 18.3674 49.6831 17.8455 49.6831 17.1981C49.6831 16.6565 49.6237 16.2073 49.5048 15.8505C49.3991 15.4938 49.2339 15.2362 49.0093 15.0777C48.7979 14.9059 48.5337 14.82 48.2166 14.82C47.9524 14.82 47.708 14.8795 47.4834 14.9984C47.2588 15.1041 47.0209 15.2957 46.7699 15.5731V19.3186C46.9945 19.5036 47.2191 19.6357 47.4437 19.715C47.6815 19.7943 47.9061 19.8339 48.1175 19.8339Z" fill="#0D0D0D"/>
<path d="M57.7514 22.5093C56.5227 22.5093 55.5384 22.0469 54.7985 21.122C54.0719 20.1972 53.7086 18.9355 53.7086 17.3369C53.7086 16.2535 53.9001 15.3287 54.2833 14.5624C54.6796 13.7829 55.1883 13.1884 55.8092 12.7788C56.4302 12.356 57.0776 12.1446 57.7514 12.1446C58.2931 12.1446 58.7423 12.2371 59.099 12.4221C59.4557 12.5938 59.786 12.8317 60.0899 13.1355L59.971 11.7087V8.45856H63.2409V22.2715H60.5853L60.3475 21.34H60.2682C59.9379 21.6703 59.5416 21.9478 59.0792 22.1724C58.63 22.397 58.1874 22.5093 57.7514 22.5093ZM58.6234 19.8339C58.9008 19.8339 59.1452 19.781 59.3566 19.6754C59.5812 19.5697 59.786 19.3715 59.971 19.0808V15.3353C59.7596 15.1371 59.5284 15.005 59.2773 14.9389C59.0263 14.8597 58.7819 14.82 58.5441 14.82C58.2931 14.82 58.0486 14.9059 57.8108 15.0777C57.5862 15.2362 57.4013 15.5004 57.2559 15.8704C57.1238 16.2271 57.0578 16.7027 57.0578 17.2972C57.0578 18.1956 57.1965 18.843 57.4739 19.2394C57.7514 19.6357 58.1345 19.8339 58.6234 19.8339Z" fill="#0D0D0D"/>
<path d="M65.998 22.2715V12.1645C65.998 11.451 66.1169 10.797 66.3547 10.2025C66.5925 9.60798 66.9889 9.13236 67.5438 8.77564C68.1119 8.40571 68.8716 8.22075 69.8228 8.22075C70.2852 8.22075 70.6948 8.26038 71.0515 8.33965C71.4082 8.41892 71.6923 8.49819 71.9037 8.57746L71.2893 10.8961C70.959 10.8169 70.6353 10.7772 70.3183 10.7772C69.988 10.7772 69.7303 10.8697 69.5454 11.0547C69.3604 11.2396 69.2679 11.5699 69.2679 12.0456V22.2715H65.998ZM64.5315 14.9389V12.5014L66.216 12.3825H70.4168V14.9389H64.5315Z" fill="#0D0D0D"/>
<path d="M76.8079 22.4498C75.751 22.4498 75.0045 22.146 74.5685 21.5382C74.1457 20.9173 73.9344 20.1179 73.9344 19.1403V14.0868H72.5273V12.6995L74.0334 12.6004L74.2514 9.52871H75.7774V12.6004H78.3537V14.0868H75.7774V19.1601C75.7774 19.7414 75.8897 20.1906 76.1143 20.5077C76.3389 20.8116 76.7088 20.9635 77.2241 20.9635C77.4091 20.9635 77.5874 20.9503 77.7592 20.9239C77.9441 20.8974 78.1225 20.838 78.2942 20.7455L78.6708 22.0337C78.4198 22.1526 78.1291 22.2517 77.7988 22.3309C77.4817 22.4102 77.1514 22.4498 76.8079 22.4498Z" fill="#0D0D0D"/>
<path d="M84.2936 22.5093C83.5009 22.5093 82.761 22.3111 82.074 21.9148C81.387 21.5184 80.8321 20.9437 80.4093 20.1906C79.9865 19.4243 79.7751 18.5127 79.7751 17.4558C79.7751 16.3724 79.9865 15.4542 80.4093 14.7011C80.8321 13.9481 81.387 13.3733 82.074 12.977C82.761 12.5674 83.5009 12.3626 84.2936 12.3626C85.0863 12.3626 85.8261 12.5674 86.5132 12.977C87.2002 13.3733 87.7551 13.9481 88.1778 14.7011C88.6006 15.4542 88.812 16.3724 88.812 17.4558C88.812 18.5127 88.6006 19.4243 88.1778 20.1906C87.7551 20.9437 87.2002 21.5184 86.5132 21.9148C85.8261 22.3111 85.0863 22.5093 84.2936 22.5093ZM84.2936 20.9833C84.822 20.9833 85.2845 20.838 85.6808 20.5473C86.0772 20.2567 86.381 19.8471 86.5924 19.3186C86.817 18.777 86.9293 18.156 86.9293 17.4558C86.9293 16.7423 86.817 16.1214 86.5924 15.5929C86.381 15.0512 86.0772 14.6351 85.6808 14.3444C85.2845 14.0405 84.822 13.8886 84.2936 13.8886C83.7651 13.8886 83.3027 14.0405 82.9063 14.3444C82.5232 14.6351 82.2193 15.0512 81.9947 15.5929C81.7833 16.1214 81.6776 16.7423 81.6776 17.4558C81.6776 18.156 81.7833 18.777 81.9947 19.3186C82.2193 19.8471 82.5232 20.2567 82.9063 20.5473C83.3027 20.838 83.7651 20.9833 84.2936 20.9833Z" fill="#0D0D0D"/>
<path d="M94.6769 22.5093C93.8842 22.5093 93.1444 22.3111 92.4574 21.9148C91.7704 21.5184 91.2155 20.9437 90.7927 20.1906C90.3699 19.4243 90.1585 18.5127 90.1585 17.4558C90.1585 16.3724 90.3699 15.4542 90.7927 14.7011C91.2155 13.9481 91.7704 13.3733 92.4574 12.977C93.1444 12.5674 93.8842 12.3626 94.6769 12.3626C95.4697 12.3626 96.2095 12.5674 96.8965 12.977C97.5835 13.3733 98.1384 13.9481 98.5612 14.7011C98.984 15.4542 99.1954 16.3724 99.1954 17.4558C99.1954 18.5127 98.984 19.4243 98.5612 20.1906C98.1384 20.9437 97.5835 21.5184 96.8965 21.9148C96.2095 22.3111 95.4697 22.5093 94.6769 22.5093ZM94.6769 20.9833C95.2054 20.9833 95.6678 20.838 96.0642 20.5473C96.4605 20.2567 96.7644 19.8471 96.9758 19.3186C97.2004 18.777 97.3127 18.156 97.3127 17.4558C97.3127 16.7423 97.2004 16.1214 96.9758 15.5929C96.7644 15.0512 96.4605 14.6351 96.0642 14.3444C95.6678 14.0405 95.2054 13.8886 94.6769 13.8886C94.1485 13.8886 93.6861 14.0405 93.2897 14.3444C92.9066 14.6351 92.6027 15.0512 92.3781 15.5929C92.1667 16.1214 92.061 16.7423 92.061 17.4558C92.061 18.156 92.1667 18.777 92.3781 19.3186C92.6027 19.8471 92.9066 20.2567 93.2897 20.5473C93.6861 20.838 94.1485 20.9833 94.6769 20.9833Z" fill="#0D0D0D"/>
<path d="M101.236 22.2715V8.20093H103.079V22.2715H101.236Z" fill="#0D0D0D"/>
<path d="M108.607 22.5093C107.907 22.5093 107.24 22.3904 106.606 22.1526C105.971 21.9015 105.43 21.558 104.981 21.122L105.813 20.0519C106.236 20.3954 106.672 20.6596 107.121 20.8446C107.583 21.0164 108.099 21.1022 108.667 21.1022C109.261 21.1022 109.704 20.9701 109.994 20.7059C110.298 20.4284 110.45 20.0981 110.45 19.715C110.45 19.3979 110.345 19.1337 110.133 18.9223C109.935 18.7109 109.671 18.5325 109.34 18.3872C109.023 18.2419 108.68 18.1032 108.31 17.971C107.834 17.7993 107.379 17.5945 106.943 17.3567C106.52 17.1189 106.176 16.8282 105.912 16.4847C105.648 16.128 105.516 15.6854 105.516 15.1569C105.516 14.351 105.813 13.6838 106.407 13.1553C107.015 12.6269 107.848 12.3626 108.904 12.3626C109.525 12.3626 110.094 12.4683 110.609 12.6797C111.137 12.8911 111.593 13.1553 111.976 13.4724L111.144 14.5426C110.8 14.2916 110.45 14.1066 110.094 13.9877C109.737 13.8556 109.354 13.7895 108.944 13.7895C108.363 13.7895 107.933 13.9216 107.656 14.1859C107.392 14.4369 107.26 14.7275 107.26 15.0578C107.26 15.3353 107.345 15.5665 107.517 15.7515C107.689 15.9364 107.92 16.1016 108.211 16.2469C108.515 16.379 108.871 16.5111 109.281 16.6433C109.783 16.8282 110.259 17.0396 110.708 17.2774C111.157 17.502 111.514 17.7993 111.778 18.1692C112.055 18.5391 112.194 19.0148 112.194 19.5961C112.194 20.1246 112.055 20.6134 111.778 21.0626C111.514 21.4986 111.111 21.8487 110.569 22.1129C110.041 22.3772 109.387 22.5093 108.607 22.5093Z" fill="#0D0D0D"/>
<path d="M117.194 17.6009C117.194 20.8409 118.774 22.6809 121.214 22.6809C122.354 22.6809 123.394 22.0409 124.154 21.3009H124.214L124.354 22.4409H125.714V8.20093H124.054V11.9409L124.134 13.6009C123.274 12.9009 122.534 12.4809 121.414 12.4809C119.194 12.4809 117.194 14.4409 117.194 17.6009ZM118.894 17.5809C118.894 15.3609 120.134 13.8609 121.694 13.8609C122.494 13.8609 123.234 14.1409 124.054 14.8809V19.9609C123.254 20.8609 122.474 21.3009 121.574 21.3009C119.874 21.3009 118.894 19.9009 118.894 17.5809Z" fill="black"/>
<path d="M128.268 17.6009C128.268 20.8209 130.388 22.6809 132.768 22.6809C135.148 22.6809 137.268 20.8209 137.268 17.6009C137.268 14.3409 135.148 12.4809 132.768 12.4809C130.388 12.4809 128.268 14.3409 128.268 17.6009ZM129.968 17.6009C129.968 15.3609 131.108 13.8409 132.768 13.8409C134.448 13.8409 135.568 15.3609 135.568 17.6009C135.568 19.8209 134.448 21.3209 132.768 21.3209C131.108 21.3209 129.968 19.8209 129.968 17.6009Z" fill="black"/>
<path d="M139.108 17.6009C139.108 20.8209 141.088 22.6809 143.668 22.6809C144.828 22.6809 145.948 22.2009 146.828 21.4209L146.088 20.3409C145.508 20.8609 144.728 21.3209 143.808 21.3209C142.028 21.3209 140.808 19.8209 140.808 17.6009C140.808 15.3609 142.088 13.8409 143.848 13.8409C144.628 13.8409 145.228 14.2009 145.808 14.7009L146.628 13.6409C145.968 13.0209 145.068 12.4809 143.788 12.4809C141.288 12.4809 139.108 14.3409 139.108 17.6009Z" fill="black"/>
<path d="M147.869 21.3409C148.789 22.1009 150.109 22.6809 151.489 22.6809C153.789 22.6809 155.049 21.3609 155.049 19.7809C155.049 17.9409 153.489 17.3609 152.089 16.8409C150.989 16.4209 149.929 16.0609 149.929 15.1609C149.929 14.4209 150.489 13.7609 151.709 13.7609C152.569 13.7609 153.269 14.1209 153.929 14.6209L154.709 13.5809C153.969 12.9809 152.909 12.4809 151.689 12.4809C149.589 12.4809 148.349 13.6809 148.349 15.2409C148.349 16.8809 149.869 17.5409 151.249 18.0409C152.309 18.4409 153.469 18.8809 153.469 19.8809C153.469 20.7209 152.829 21.4009 151.549 21.4009C150.389 21.4009 149.529 20.9209 148.689 20.2409L147.869 21.3409Z" fill="black"/>
<defs>
<linearGradient id="paint0_linear_8378_119057" x1="31.4511" y1="15.2282" x2="14.3739" y2="23.3643" gradientUnits="userSpaceOnUse">
<stop stop-color="#6699FF"/>
<stop offset="0.411665" stop-color="#0D59F2"/>
<stop offset="1" stop-color="#610BDA"/>
</linearGradient>
<linearGradient id="paint1_linear_8378_119057" x1="0.00414129" y1="21.7344" x2="15.5618" y2="19.6017" gradientUnits="userSpaceOnUse">
<stop stop-color="#6EF7EC"/>
<stop offset="1" stop-color="#33A7FF" stop-opacity="0.9"/>
</linearGradient>
</defs>
</svg>
