<svg width="24" height="24" viewBox="0 0 24 24" fill="none" xmlns="http://www.w3.org/2000/svg">
<path fill-rule="evenodd" clip-rule="evenodd" d="M11.3333 5C11.3333 4.44772 11.781 4 12.3333 4H19C19.5523 4 20 4.44772 20 5V11.6667C20 12.219 19.5523 12.6667 19 12.6667C18.4477 12.6667 18 12.219 18 11.6667V6H12.3333C11.781 6 11.3333 5.55228 11.3333 5Z" fill="currentColor"/>
<path fill-rule="evenodd" clip-rule="evenodd" d="M19.7071 4.2929C20.0976 4.68343 20.0976 5.31659 19.7071 5.70711L11.7071 13.7071C11.3166 14.0976 10.6834 14.0976 10.2929 13.7071C9.90237 13.3166 9.90237 12.6834 10.2929 12.2929L18.2929 4.2929C18.6834 3.90238 19.3166 3.90238 19.7071 4.2929Z" fill="currentColor"/>
<path fill-rule="evenodd" clip-rule="evenodd" d="M5 9.00001C5.55228 9.00001 6 9.44772 6 10V18H14C14.5523 18 15 18.4477 15 19C15 19.5523 14.5523 20 14 20H5C4.44772 20 4 19.5523 4 19V10C4 9.44772 4.44772 9.00001 5 9.00001Z" fill="currentColor"/>
</svg>
