<svg width="24" height="24" viewBox="0 0 24 24" fill="none" xmlns="http://www.w3.org/2000/svg">
  <path fill-rule="evenodd" clip-rule="evenodd" d="M12.1796 2.00007L12.1929 2.00019L12.2063 2.00007C12.2191 1.99999 12.2372 1.99995 12.2599 2.00011C12.3052 2.00044 12.3694 2.00155 12.4475 2.00465C12.603 2.01083 12.8177 2.02504 13.0524 2.0576C13.2854 2.08991 13.5495 2.14183 13.7994 2.22736C14.0437 2.31093 14.3115 2.43892 14.5174 2.64483C15.1298 3.25731 15.504 4.06804 15.5726 4.9315C15.5735 4.94407 15.574 4.95667 15.574 4.96928C15.574 6.91332 16.348 8.47911 17.1774 10.0343C17.2278 10.1289 17.2787 10.2237 17.3296 10.3188L17.33 10.3194C18.0976 11.751 18.8929 13.2346 18.8929 14.926L18.8929 14.948C19.8826 14.9924 20.6563 15.9875 20.307 17.0266L20.2233 17.2756C21.3895 17.5576 21.5934 19.1109 20.5703 19.707L17.2745 21.6276C16.0967 22.3139 14.8485 21.9838 14.0812 21.1889C13.8173 21.1755 13.5696 21.1143 13.3552 21.0544C13.2569 21.0269 13.1645 20.9997 13.0766 20.9737C12.7436 20.8755 12.475 20.7963 12.1929 20.7963C11.9109 20.7963 11.6428 20.8754 11.3099 20.9736C11.222 20.9995 11.1294 21.0269 11.031 21.0544C10.7744 21.1261 10.4702 21.1997 10.1476 21.1908C9.38021 21.9844 8.13301 22.3134 6.95619 21.6276L3.66039 19.707C2.63732 19.1109 2.84125 17.5576 4.00736 17.2756L3.92367 17.0266C3.55637 15.9338 4.43113 14.8896 5.49294 14.9489L5.49289 14.9262C5.49289 13.2348 6.28829 11.751 7.05584 10.3194C7.10686 10.2243 7.15794 10.129 7.20847 10.0343C8.03788 8.47911 8.81179 6.91332 8.81179 4.96928C8.81179 4.95667 8.81229 4.94407 8.81329 4.9315C8.88188 4.06804 9.25599 3.25731 9.86847 2.64483C10.0744 2.43892 10.3422 2.31093 10.5864 2.22736C10.8364 2.14183 11.1005 2.08991 11.3334 2.0576C11.5681 2.02504 11.7828 2.01083 11.9383 2.00465C12.0165 2.00155 12.0806 2.00044 12.126 2.00011C12.1487 1.99995 12.1667 1.99999 12.1796 2.00007ZM11.0833 9.81675C11.0263 10.0781 10.9415 10.332 10.8436 10.5786C10.6994 10.9415 10.5154 11.3138 10.3346 11.6797C10.2918 11.7665 10.249 11.8529 10.2071 11.9388C9.7585 12.8569 9.35112 13.7986 9.35112 14.926C9.35112 15.8627 9.63036 16.4341 10.0619 16.7862C10.5123 17.1537 11.2133 17.3529 12.1929 17.3529C13.1725 17.3529 13.8735 17.1537 14.324 16.7862C14.7555 16.4341 15.0347 15.8627 15.0347 14.926C15.0347 13.7986 14.6273 12.8569 14.1788 11.9388C14.1368 11.8529 14.094 11.7664 14.0511 11.6795C13.8703 11.3136 13.6865 10.9415 13.5423 10.5786C13.4443 10.332 13.3596 10.0781 13.3025 9.81675L12.9515 10.0361C12.4874 10.3262 11.8985 10.3262 11.4343 10.0361L11.0833 9.81675ZM11.9401 6.51965C12.0948 6.42296 12.2911 6.42296 12.4458 6.51965L13.9643 7.46874C14.2633 7.6556 14.2633 8.09103 13.9643 8.27789L12.4458 9.22698C12.2911 9.32367 12.0948 9.32367 11.9401 9.22698L10.4215 8.27789C10.1225 8.09103 10.1225 7.6556 10.4215 7.46874L11.9401 6.51965ZM11.4254 4.55442C11.4254 4.29093 11.2118 4.07732 10.9483 4.07732C10.6848 4.07732 10.4712 4.29093 10.4712 4.55442V5.38414C10.4712 5.64763 10.6848 5.86123 10.9483 5.86123C11.2118 5.86123 11.4254 5.64763 11.4254 5.38414V4.55442ZM13.4375 4.07732C13.701 4.07732 13.9146 4.29093 13.9146 4.55442V5.38414C13.9146 5.64763 13.701 5.86123 13.4375 5.86123C13.174 5.86123 12.9604 5.64763 12.9604 5.38414V4.55442C12.9604 4.29093 13.174 4.07732 13.4375 4.07732ZM14.8676 18.7381L16.772 15.4701C16.9636 16.2116 17.7452 16.6344 18.4732 16.3897L18.7387 16.3004C18.9265 16.2373 19.1015 16.4123 19.0383 16.6001L18.9491 16.8656C18.7044 17.5936 19.1271 18.3752 19.8687 18.5668L16.6006 20.4712C15.4676 21.1314 14.2074 19.8711 14.8676 18.7381ZM7.45871 15.4701L9.36308 18.7381C10.0233 19.8711 8.76306 21.1314 7.63007 20.4712L4.36205 18.5668C5.10357 18.3752 5.52631 17.5936 5.2816 16.8656L5.19237 16.6001C5.12924 16.4123 5.30422 16.2373 5.49204 16.3004L5.75752 16.3897C6.48554 16.6344 7.26712 16.2116 7.45871 15.4701Z" fill="currentColor" />
</svg>
  