<svg width="24" height="24" viewBox="0 0 24 24" fill="none" xmlns="http://www.w3.org/2000/svg">
<path fill-rule="evenodd" clip-rule="evenodd" d="M16.3207 0C16.4574 1.23017 15.979 2.39199 15.2955 3.28045C14.6121 4.1689 13.4503 4.85233 12.2885 4.71565C12.1518 3.55382 12.7669 2.32365 13.382 1.57188C14.0654 0.683427 15.2955 0.0683427 16.3207 0ZM18.1902 9.92589C17.9071 10.4921 17.6948 11.1999 17.6948 12.0492C17.7656 15.3049 20.4551 16.3665 20.4551 16.3665C20.4551 16.4373 20.0304 17.9236 19.0395 19.41C18.1902 20.684 17.2701 22.0287 15.8546 22.0287C15.1715 22.0287 14.7192 21.8309 14.2511 21.6263C13.7491 21.4068 13.2289 21.1794 12.3866 21.1794C11.5535 21.1794 11.0244 21.4022 10.5065 21.6202C10.0563 21.8098 9.61457 21.9958 8.9892 22.0287C7.64448 22.0995 6.58283 20.6132 5.73351 19.3392C4.2472 17.0744 3.04399 13.3232 3.75176 10.2797C3.89331 9.71357 4.10564 9.14734 4.38875 8.65191C5.30885 7.02402 6.93671 5.96236 8.70617 5.96236C9.4554 5.96236 10.1828 6.24801 10.8268 6.501C11.3387 6.70205 11.7981 6.88246 12.1742 6.88246C12.4743 6.88246 12.8902 6.71414 13.3813 6.51539C14.1639 6.19863 15.1374 5.80461 16.1377 5.89159C16.8455 5.96236 18.7564 6.17469 19.9597 8.01489C19.9496 8.025 19.9192 8.04523 19.8728 8.07618C19.5942 8.26189 18.7362 8.83389 18.1902 9.92589Z" fill="currentColor"/>
</svg>
