<svg width="24" height="24" viewBox="0 0 24 24" fill="currentColor" xmlns="http://www.w3.org/2000/svg">
<path d="M13.4133 3.51393C14.5849 2.34236 16.4844 2.34236 17.656 3.51393L20.4844 6.34236C21.656 7.51393 21.656 9.41343 20.4844 10.585L17.656 13.4134C17.2655 13.804 16.6323 13.804 16.2418 13.4134C15.8512 13.0229 15.8512 12.3897 16.2418 11.9992L19.0702 9.17079C19.4607 8.78026 19.4607 8.1471 19.0702 7.75657L16.2418 4.92815C15.8512 4.53762 15.2181 4.53762 14.8276 4.92815L11.9991 7.75657C11.6086 8.1471 10.9754 8.1471 10.5849 7.75657C10.1944 7.36605 10.1944 6.73288 10.5849 6.34236L13.4133 3.51393Z" fill="currentColor"/>
<path d="M15.5347 8.46398C15.9253 8.8545 15.9253 9.48767 15.5347 9.87819L9.87789 15.535C9.48736 15.9256 8.8542 15.9256 8.46367 15.535C8.07315 15.1445 8.07315 14.5114 8.46367 14.1208L14.1205 8.46398C14.511 8.07345 15.1442 8.07345 15.5347 8.46398Z" fill="currentColor"/>
<path d="M6.34205 20.4842C7.51363 21.6558 9.41312 21.6558 10.5847 20.4842L13.4131 17.6558C13.8036 17.2652 13.8036 16.6321 13.4131 16.2415C13.0226 15.851 12.3894 15.851 11.9989 16.2415L9.17048 19.07C8.77996 19.4605 8.14679 19.4605 7.75627 19.07L4.92784 16.2415C4.53732 15.851 4.53732 15.2179 4.92784 14.8273L7.75627 11.9989C8.14679 11.6084 8.14679 10.9752 7.75627 10.5847C7.36575 10.1942 6.73258 10.1942 6.34206 10.5847L3.51363 13.4131C2.34206 14.5847 2.34206 16.4842 3.51363 17.6558L6.34205 20.4842Z" fill="currentColor"/>
</svg>
